<svg xmlns="http://www.w3.org/2000/svg" viewBox="0 0 36 32">
  <path d="M1,6 Q18,1.6 35,6 L34.2,9.2 Q18,5.4 1.8,9.2 Z" fill="#c33c54" />
  <rect x="4.5" y="11.6" width="27" height="2.6" fill="#c33c54" />
  <rect x="5" y="8.6" width="3" height="23.4" rx="1" fill="#c33c54" />
  <rect x="28" y="8.6" width="3" height="23.4" rx="1" fill="#c33c54" />
  <g transform="translate(10.4,15.2) scale(0.55)">
    <path
      d="M4,9 L2,1.5 L10,7.5 Q16,4 22,7.5 L30,1.5 L28,9 Q30.5,14.5 28,20 Q24.5,26 16,26 Q7.5,26 4,20 Q1.5,14.5 4,9 Z"
      fill="#c33c54"
    />
    <circle cx="12" cy="16.5" r="1.6" fill="#f7fbfa" />
    <circle cx="20" cy="16.5" r="1.6" fill="#f7fbfa" />
    <path d="M15,20 L17,20 L16,21.3 Z" fill="#f7fbfa" />
  </g>
</svg>
