<svg xmlns="http://www.w3.org/2000/svg" viewBox="0 0 38 28">
  <path
    d="M4,9 L2,1.5 L10,7.5 Q16,4 22,7.5 L30,1.5 L28,9 Q30.5,14.5 28,20 Q24.5,26 16,26 Q7.5,26 4,20 Q1.5,14.5 4,9 Z"
    fill="#c33c54"
  />
  <circle cx="12" cy="16.5" r="1.6" fill="#f7fbfa" />
  <circle cx="20" cy="16.5" r="1.6" fill="#f7fbfa" />
  <path d="M15,20 L17,20 L16,21.3 Z" fill="#f7fbfa" />
  <path
    d="M26,10.5 L35,2.5 M35,2.5 m-2.4,0 a2.4,2.4 0 1,0 4.8,0 a2.4,2.4 0 1,0 -4.8,0 M33.2,2.5 L36.8,2.5"
    fill="none"
    stroke="#c33c54"
    stroke-width="1.3"
    stroke-linecap="round"
  />
</svg>
